<svg xmlns="http://www.w3.org/2000/svg" width="400" height="400" viewBox="0 0 400 NaN"  fill-rule="evenodd" xmlns:v="https://vecta.io/nano"><path d="M132.355 159.806c-18.826 1.921-35.075 16.192-39.663 34.833-6.645 26.998 12.69 54.046 40.429 56.558 22.639 2.051 43.417-12.777 48.852-34.86 7.543-30.645-18.009-59.756-49.618-56.531m94.958-.114c-36.262 3.658-54.498 44.611-32.723 73.487 21.896 29.036 67.535 21.988 79.918-12.341 11.161-30.943-14.681-64.425-47.195-61.146m72.719.852c-10.174 2.735-17.793 11.608-18.977 22.098-.436 3.863-.349 43.13.097 43.982 2.238 4.271 10.543 4.387 12.872.179.383-.691.437-2.859.555-22.208.147-23.932.026-22.378 1.995-25.659 6.244-10.404 23.378-3.921 20.615 7.799-1.459 6.191-5.001 9.189-11.637 9.851-5.274.526-6.593 1.883-6.835 7.032-.24 5.107 1.039 6.429 6.431 6.648 11.224.456 22.209-7.853 25.182-19.047 3.425-12.895-4.842-27.01-17.886-30.537-2.6-.704-10.003-.786-12.412-.138m-265.954-.071l-1.04.22c-1.082.227-2.957 1.947-3.579 3.283l-.609 1.308.003 41.353.573 1.01c1.101 1.945 3.904 3.202 7.141 3.202 2.004 0 3.13-.62 4.957-2.729 6.226-7.187 14.113-10.364 21.144-8.517 16.788 4.411 20.345 25.505 5.89 34.935-9.829 6.413-22.309 2.448-27.964-8.884-1.992-3.994-3.599-4.79-7.537-3.737-7.084 1.895-7.77 6.372-2.25 14.668 17.655 26.535 59.194 14.762 60.241-17.073.816-24.784-24.273-41.614-46.568-31.239l-2.361 1.099v-15.537h38.213l1.05-.76c3.681-2.667 2.537-11.561-1.612-12.52-.987-.229-44.629-.306-45.692-.082m301.58.336c-3.755 1.986-6.074 6.35-4.724 8.891.201.379 3.705 4.02 7.786 8.09l7.419 7.401-7.503 7.532c-4.127 4.143-7.631 7.783-7.786 8.09-1.639 3.24 2.844 9.015 7 9.015 2.026 0 1.79.189 10.012-8.003l7.467-7.438 7.466 7.438c4.107 4.091 7.718 7.565 8.024 7.721 3.428 1.734 9.27-2.584 9.27-6.853 0-2.205.372-1.734-8.062-10.223l-7.227-7.275 15.289-15.665v-1.689c0-4.352-5.517-8.741-9.006-7.163-.452.204-4.21 3.706-8.352 7.783l-7.53 7.411-7.372-7.411c-8.733-8.778-9.33-9.154-12.171-7.652m-193.103 13.69c20.727 3.404 32.29 26.179 22.863 45.032-12.516 25.029-49.115 22.365-57.931-4.216-7.432-22.412 11.679-44.656 35.068-40.816m91.778-.276c21.021 1.714 34.447 25.006 25.511 44.256-9.193 19.805-34.812 24.703-50.454 9.645-15.636-15.052-11.546-41.188 7.968-50.912 3.841-1.913 11.13-3.558 14.295-3.225.421.044 1.627.15 2.68.236" fill="#fbfbfb"/><path d="M189.407 3.742C72.216 10.792-12.652 115.99 5.747 231.398c15.214 95.428 97.49 165.544 194.249 165.538 108.818-.006 196.691-87.875 196.685-196.676-.006-108.263-86.92-195.858-195.022-196.55-5.826-.037-11.34-.023-12.252.032M144.99 160.16c17.382 2.658 32.656 16.898 36.983 34.479 7.997 32.49-21.135 62.581-54.085 55.868-15.133-3.083-29.339-15.642-34.031-30.086-10.84-33.373 16.472-65.56 51.133-60.261m93.172-.112c28.083 4.134 45.983 34.073 36.346 60.79-11.479 31.821-51.652 40.899-75.646 17.095-27.727-27.508-10.716-74.29 28.451-78.241 1.731-.174 8.828.058 10.849.356m74.282.634c13.044 3.527 21.311 17.642 17.886 30.537-2.973 11.194-13.958 19.503-25.182 19.047-5.392-.219-6.671-1.541-6.431-6.648.242-5.149 1.561-6.506 6.835-7.032 6.636-.662 10.178-3.66 11.637-9.851 2.763-11.72-14.371-18.203-20.615-7.799-1.969 3.281-1.848 1.727-1.995 25.659-.118 19.349-.172 21.517-.555 22.208-2.329 4.208-10.634 4.092-12.872-.179-.446-.852-.533-40.119-.097-43.982 1.184-10.49 8.803-19.363 18.977-22.098 2.409-.648 9.812-.566 12.412.138m-232.674-.127c4.149.959 5.293 9.853 1.612 12.52l-1.05.76H42.119v15.537l2.361-1.099c8.728-4.061 19.886-3.974 28.095.221 22.611 11.554 25.204 41.437 4.91 56.606-16.228 12.131-40.375 5.768-49.198-12.965-2.527-5.365-.98-8.68 4.77-10.218 3.938-1.053 5.545-.257 7.537 3.737 5.655 11.332 18.135 15.297 27.964 8.884 14.455-9.43 10.898-30.524-5.89-34.935-7.031-1.847-14.918 1.33-21.144 8.517-1.827 2.109-2.953 2.729-4.957 2.729-3.237 0-6.04-1.257-7.141-3.202l-.573-1.01-.003-41.353.609-1.308c.622-1.336 2.497-3.056 3.579-3.283l1.04-.22c1.063-.224 44.705-.147 45.692.082m259.967.123c.395.205 4.037 3.707 8.092 7.783l7.372 7.411 7.53-7.411c4.142-4.077 7.9-7.579 8.352-7.783 3.489-1.578 9.006 2.811 9.006 7.163v1.689L364.8 185.195l7.227 7.275c8.434 8.489 8.062 8.018 8.062 10.223 0 4.269-5.842 8.587-9.27 6.853-.306-.156-3.917-3.63-8.024-7.721l-7.466-7.438-7.467 7.438c-8.222 8.192-7.986 8.003-10.012 8.003-4.156 0-8.639-5.775-7-9.015.155-.307 3.659-3.947 7.786-8.09l7.503-7.532-7.419-7.401c-4.081-4.07-7.585-7.711-7.786-8.09-2.173-4.092 4.704-11.141 8.803-9.022m-204.892 13.464c-20.251 1.579-33.751 21.895-27.358 41.173 8.816 26.581 45.415 29.245 57.931 4.216 10.908-21.815-6.248-47.286-30.573-45.389m93.745-.021c-18.673 1.746-31.812 19.043-28.245 37.182 5.922 30.108 46.578 35.012 59.499 7.176 8.936-19.25-4.49-42.542-25.511-44.256l-2.68-.236c-.421-.045-1.8.016-3.063.134" fill="#040404"/></svg>