<svg xmlns="http://www.w3.org/2000/svg" width="400" height="400" viewBox="0 0 400 NaN"  fill-rule="evenodd" xmlns:v="https://vecta.io/nano"><path d="M64.198 87.256c-8.561 1.025-14.865 7.056-16.464 15.752-.448 2.436-.448 195.169 0 197.606 1.428 7.763 6.276 13.083 13.994 15.359 1.251.368 4.317.523 12.757.645l11.11.161.166-173.839 81.633 58.652 33.093 23.405c.389 0 64.263-45.683 110.953-79.355l3.786-2.73.166 173.867 11.111-.161c8.545-.123 11.503-.275 12.809-.656 6.617-1.931 10.963-5.974 13.176-12.258l.928-2.634V102.551l-.928-2.633c-2.977-8.453-8.978-12.421-19.484-12.884l-4.609-.204-15.309 11.121-112.592 81.277c-.272 0-12.346-8.6-26.831-19.111L72.68 86.914l-3.171.043c-1.745.024-4.135.158-5.311.299" fill="#fbfbfb"/><path d="M189.959 1.514C71.785 9.493-12.013 110.897 3.488 227.16c13.09 98.174 96.999 171.275 196.677 171.344 12.45.009 15.232-.14 25.02-1.333C314.85 386.239 386.568 314.52 397.5 224.856c1.185-9.718 1.339-12.591 1.334-24.856-.045-104.01-76.6-187.516-181.55-198.034-3.448-.346-23.89-.684-27.325-.452m-79.957 112.445l63.661 46.158 26.831 19.111c.415.001 46.932-33.579 112.592-81.277l15.309-11.121 4.609.204c10.506.463 16.507 4.431 19.484 12.884l.928 2.633V301.07l-.928 2.634c-2.213 6.284-6.559 10.327-13.176 12.258-1.306.381-4.264.533-12.809.656l-11.111.161-.166-173.867-3.786 2.73-110.953 79.355c-.283 0-15.174-10.532-33.093-23.405L85.761 142.94l-.166 173.839-11.11-.161c-8.44-.122-11.506-.277-12.757-.645-7.718-2.276-12.566-7.596-13.994-15.359-.448-2.437-.448-195.17 0-197.606 1.945-10.575 9.14-15.879 21.775-16.051l3.171-.043 37.322 27.045" fill="#040404"/></svg>