<svg xmlns="http://www.w3.org/2000/svg" width="24" height="24"  xmlns:v="https://vecta.io/nano"><path d="M12 0C5.374 0 0 5.373 0 12c0 5.302 3.438 9.8 8.207 11.387.599.111.793-.261.793-.577v-2.234c-3.338.726-4.033-1.416-4.033-1.416-.546-1.387-1.333-1.756-1.333-1.756-1.089-.745.083-.729.083-.729 1.205.084 1.839 1.237 1.839 1.237 1.07 1.834 2.807 1.304 3.492.997.107-.775.418-1.305.762-1.604-2.665-.305-5.467-1.334-5.467-5.931 0-1.311.469-2.381 1.236-3.221-.124-.303-.535-1.524.117-3.176 0 0 1.008-.322 3.301 1.23A11.51 11.51 0 0 1 12 5.803c1.02.005 2.047.138 3.006.404 2.291-1.552 3.297-1.23 3.297-1.23.653 1.653.242 2.874.118 3.176a4.63 4.63 0 0 1 1.235 3.221c0 4.609-2.807 5.624-5.479 5.921.43.372.823 1.102.823 2.222v3.293c0 .319.192.694.801.576C20.566 21.797 24 17.3 24 12c0-6.627-5.373-12-12-12z"/><path d="M9 21.723l-.007-1.159c-.004 0-.136.025-.293.056-.366.07-1.196.101-1.532.056-1.089-.145-1.84-.692-2.232-1.626-.296-.706-.727-1.285-1.179-1.586-.407-.27-.567-.433-.567-.575s.333-.229.683-.177c.642.094 1.212.514 1.695 1.25.578.881 1.126 1.224 2.013 1.258.432.016.696-.024 1.155-.175.336-.111.303-.071.41-.512s.298-.821.56-1.102c.062-.066.108-.124.104-.128s-.185-.033-.402-.065c-1.678-.245-2.814-.751-3.657-1.63-.715-.746-1.141-1.722-1.324-3.034-.035-.253-.048-.532-.049-1.077-.001-.663.005-.767.061-1.045.16-.789.477-1.466.97-2.071l.184-.225-.067-.213c-.202-.64-.226-1.341-.071-2.106.063-.311.229-.817.278-.848.057-.036.377-.026.638.019.628.109 1.438.465 2.304 1.012l.317.2.406-.095c.876-.205 1.673-.295 2.602-.295s1.725.09 2.604.296l.409.095.137-.087c1.195-.756 2.042-1.112 2.758-1.16.388-.026.371-.038.501.36.164.504.225.89.228 1.431.002.492-.038.784-.159 1.169l-.07.221.205.253a4.67 4.67 0 0 1 .96 2.107c.07.375.07 1.556.001 2.059-.305 2.21-1.358 3.576-3.279 4.254-.494.174-1.096.315-1.689.396-.509.069-.476.049-.325.205.326.336.547.818.656 1.427.038.211.047.548.057 2.139l.012 1.889H9z" fill="#fff"/></svg>