<svg xmlns="http://www.w3.org/2000/svg" width="400" height="400" viewBox="0 0 400 NaN"  fill-rule="evenodd" xmlns:v="https://vecta.io/nano"><path d="M112.2 73.612c-10.846 1.342-20.058 9.337-22.835 19.816-.733 2.767-.867 12.06-.192 13.321.235.439.427 1.12.427 1.513 0 1.997 3.763 8.204 6.838 11.279 13.628 13.628 37.494 8.915 44.259-8.741 1.727-4.508 1.887-5.388 1.885-10.4-.008-16.52-13.958-28.82-30.382-26.788m-23.614 78.885c-.105.277-.145 35.333-.089 77.903l.103 77.4 54.202.206L142.6 152.2l-26.911-.103c-21.318-.081-26.952.002-27.103.4m86.214 77.5V308H220v-42.102l.589-47.1c2.241-19.019 10.493-27.843 26.811-28.669 14.539-.735 24.205 6.434 27.33 20.271 2.003 8.869 2.063 10.488 2.067 55.5l.003 42.1h46.4v-47.368c0-45.359-.205-55.684-1.242-62.432-.968-6.296-3.042-14.649-4.371-17.6l-1.384-3.173c-7.377-17.098-23.625-25.23-50.403-25.225-22.608.004-36.821 5.725-45.097 18.15-2.432 3.652-2.478 3.516-2.703-7.952l-.2-10.2-43-.207v78.004" fill="#f9f9f9"/><path d="M180.645 1.489c-.167.166-1.685.437-3.374.601-4.828.47-7.399.91-8.345 1.43-.48.264-1.605.48-2.5.48s-1.626.18-1.626.4c0 .233-1.333.4-3.2.4s-3.2.167-3.2.4c0 .22-.709.4-1.576.4s-1.688.18-1.824.4-.777.4-1.424.4-1.176.18-1.176.4-.54.4-1.2.4-1.2.18-1.2.4-1.04.4-2.32.4-2.491.143-2.7.318-1.1.547-1.98.827c-1.864.592-3.156 1.108-4.732 1.892-.623.31-1.648.563-2.277.563s-1.255.18-1.391.4-.676.4-1.2.4-1.064.18-1.2.4-.597.4-1.024.4-.776.18-.776.4-.36.4-.8.4-.8.18-.8.4-.72.4-1.6.4-1.6.18-1.6.4-.252.4-.559.4-1.586.54-2.841 1.2-2.55 1.2-2.879 1.2c-.675 0-3.05 1.241-3.254 1.7-.074.165-.479.3-.9.3s-.767.18-.767.4-.36.4-.8.4-.8.18-.8.4-.362.4-.805.4c-.739 0-2.313.688-2.795 1.221-.11.122-1.607.93-3.326 1.795s-3.466 1.89-3.883 2.278-1.035.706-1.374.706-.617.18-.617.4-.36.4-.8.4-.8.18-.8.4-.272.4-.604.4-1.168.54-1.859 1.2-1.516 1.2-1.835 1.2c-.518 0-2.275 1.071-3.588 2.187-1.042.886-1.555 1.234-2.64 1.794-.619.32-1.653 1.085-2.296 1.7S84.146 38.4 83.826 38.4s-.816.318-1.103.707-.973 1-1.523 1.358-1.397 1.03-1.883 1.493-1.044.842-1.241.842-.922.54-1.613 1.2-1.411 1.2-1.6 1.2c-.488 0-2.863 2.326-2.863 2.803 0 .219-.227.397-.504.397-.564 0-2.187 1.446-3.084 2.747-.324.469-.812.853-1.086.853s-2.764 2.25-5.534 5l-5.414 5c-.208 0-.378.184-.378.409s-.9 1.318-2 2.429-2 2.238-2 2.503-.384.747-.853 1.071c-1.301.897-2.747 2.52-2.747 3.084 0 .277-.172.504-.382.504-.468 0-2.418 1.909-2.418 2.368 0 .182-.63 1.019-1.4 1.86s-1.4 1.748-1.4 2.017-.142.548-.317.622-.849.853-1.499 1.733-1.499 1.835-1.884 2.123-.7.784-.7 1.103-.534 1.14-1.186 1.823-1.417 1.761-1.698 2.396-.647 1.155-.814 1.155-.302.195-.302.433-.63 1.201-1.4 2.141-1.4 1.96-1.401 2.267S31.059 95.23 30.4 96s-1.199 1.625-1.199 1.9-.181.5-.401.5-.4.272-.4.605c0 .678-.695 2.002-1.6 3.048-.33.381-.935 1.38-1.344 2.22L22.8 109.2c-.448.448-1.2 2.023-1.2 2.515 0 .74-.939 2.678-1.3 2.682-.165.002-.3.363-.3.803s-.18.8-.4.8-.4.255-.4.568-.254 1.077-.564 1.7l-3.036 6.788c0 .299-.18.544-.4.544s-.4.72-.4 1.6-.18 1.6-.4 1.6-.4.36-.4.8-.18.8-.4.8-.4.362-.4.805c0 .778-.142 1.164-1.138 3.09a4.85 4.85 0 0 0-.462 1.867c0 .535-.253 1.483-.563 2.106-.784 1.576-1.3 2.868-1.892 4.732-.28.88-.652 1.771-.827 1.98S8 146.404 8 147.68 7.821 150 7.6 150s-.4.54-.4 1.2-.18 1.2-.4 1.2-.4.63-.4 1.4-.18 1.4-.4 1.4-.4.72-.4 1.6-.18 1.6-.4 1.6c-.235 0-.4 1.4-.4 3.4s-.165 3.4-.4 3.4c-.22 0-.4.885-.4 1.967 0 1.103-.198 2.032-.451 2.117-.248.082-.53 1.132-.627 2.333s-.337 2.543-.533 2.983c-.956 2.151-1.34 43.219-.462 49.4.994 6.995 1.229 8.185 1.64 8.322.238.08.433 1.019.433 2.088s.18 2.054.4 2.19.4 1.576.4 3.2.18 3.064.4 3.2.4.946.4 1.8.18 1.664.4 1.8.4.777.4 1.424.18 1.176.4 1.176.4.529.4 1.176.18 1.288.4 1.424.403 1.002.406 1.924c.006 1.604.742 4.357 1.32 4.935.151.151.274.684.274 1.184s.18 1.021.4 1.157.4.584.4.995.27 1.018.6 1.348.6 1.237.6 2.016.36 2.058.8 2.841.8 1.779.8 2.212.18.788.4.788.4.36.4.8.18.8.4.8.4.598.4 1.33c0 .769.674 2.632 1.6 4.421.88 1.701 1.6 3.43 1.6 3.842s.27 1.02.6 1.35.6.883.6 1.228.18.629.4.629.4.36.4.8.135.801.3.803c.361.004 1.3 1.942 1.3 2.682 0 .492.752 2.067 1.2 2.515.212.212 1.128 1.797 1.618 2.8l1.034 2.11c.407.83 1.237 2.09 1.843 2.8s1.104 1.695 1.104 2.19.181.9.401.9.4.27.4.6.18.6.4.6.4.236.4.525.36.911.8 1.383.8 1.051.8 1.287.718 1.337 1.596 2.447 1.905 2.68 2.282 3.488 1.19 1.947 1.805 2.53 1.117 1.272 1.117 1.529.225.7.5.984.98 1.126 1.566 1.871 1.531 1.896 2.1 2.556 1.033 1.343 1.034 1.518.425.743.944 1.262 1.344 1.591 1.833 2.382 1.144 1.438 1.456 1.438.567.249.567.552.81 1.278 1.8 2.164 1.8 1.805 1.8 2.043c0 .542 1.262 2.041 1.717 2.041.426 0 1.483 1.037 1.483 1.455 0 .171.855 1.145 1.9 2.163s2.864 2.87 4.042 4.116 2.392 2.266 2.7 2.266.558.18.558.4.27.4.6.4.6.283.6.629c0 .808.963 1.771 1.771 1.771.346 0 .629.162.629.36 0 .578 2.826 3.24 3.44 3.24.308 0 .56.152.56.339 0 .488 1.426 2.061 1.869 2.061.206 0 1.024.585 1.817 1.3s1.938 1.66 2.544 2.1 1.329 1.025 1.607 1.3.716.5.974.5.972.54 1.589 1.2 1.32 1.2 1.564 1.2 1.003.535 1.686 1.188 1.582 1.295 1.997 1.427.753.407.753.612.236.373.525.373.911.36 1.383.8 1.018.8 1.213.8.681.36 1.079.8 1.022.8 1.387.8 1.049.36 1.521.8 1.001.8 1.175.8.84.451 1.479 1 1.467 1 1.838 1 .987.344 1.367.763 1.218.982 1.862 1.249 1.171.643 1.171.837.377.351.838.351 1.316.332 1.9.737 1.647.99 2.362 1.298 1.3.696 1.3.863.439.302.976.302 1.081.168 1.208.374 1.263.875 2.524 1.486 2.352 1.252 2.425 1.425.571.315 1.106.315 1.329.18 1.766.4l1.595.8 3.195 1.6c.437.22 1.337.4 2 .4s1.205.18 1.205.4.36.4.8.4.8.168.8.373.405.487.9.625a19.68 19.68 0 0 1 1.7.577l1.919.775c.615.248 1.74.45 2.5.45s1.381.18 1.381.4.349.4.776.4.888.18 1.024.4.777.4 1.424.4 1.176.18 1.176.4.439.4.976.4 1.088.18 1.224.4 1.227.4 2.424.4 2.176.18 2.176.4.529.4 1.176.4 1.288.18 1.424.4.845.4 1.575.4 1.532.247 1.782.549c.49.589 1.825.834 11.243 2.062.99.129 2.16.396 2.6.592s1.7.45 2.8.562l6.2.646c6.075.641 47.376.374 48.06-.311.275-.275 1.454-.5 2.62-.5s2.12-.18 2.12-.4.889-.4 1.976-.4 2.088-.18 2.224-.4 1.182-.4 2.324-.4c2.574 0 7.617-1.024 7.804-1.585.076-.228.664-.415 1.305-.415s1.167-.18 1.167-.4.72-.4 1.6-.4 1.6-.18 1.6-.4.99-.4 2.2-.4 2.2-.18 2.2-.4.54-.4 1.2-.4 1.2-.18 1.2-.4.529-.4 1.176-.4 1.288-.18 1.424-.4.597-.4 1.024-.4.776-.18.776-.4.622-.4 1.381-.4 1.885-.202 2.5-.45l1.919-.775a19.68 19.68 0 0 1 1.7-.577c.495-.138.9-.42.9-.625s.36-.373.8-.373.8-.18.8-.4.619-.4 1.376-.4 1.488-.18 1.624-.4.563-.4.948-.4 1.088-.36 1.56-.8 1.215-.8 1.652-.8.904-.18 1.04-.4.679-.4 1.206-.4 1.875-.54 2.994-1.2 2.185-1.2 2.369-1.2.557-.27.831-.6.838-.6 1.254-.6c.846 0 2.106-.649 3.301-1.7.438-.385 1.032-.7 1.32-.7s.525-.18.525-.4.54-.4 1.2-.4 1.2-.18 1.2-.4.242-.4.538-.4.864-.36 1.262-.8.966-.8 1.262-.8.538-.18.538-.4.332-.4.739-.4 1.165-.37 1.687-.823 1.539-1.103 2.261-1.445 1.313-.783 1.313-.978.358-.354.797-.354 1.021-.36 1.296-.8.816-.8 1.203-.8.704-.145.704-.321.937-.828 2.083-1.447 2.567-1.644 3.16-2.278 1.274-1.154 1.513-1.154c.456 0 1.514-.79 3.076-2.3.512-.495 1.126-.9 1.364-.9s.831-.364 1.318-.809c2.586-2.36 3.693-3.268 4.736-3.884.633-.374 1.253-1.001 1.377-1.394s.506-.713.846-.713c.618 0 3.327-2.669 3.327-3.278 0-.177.32-.322.712-.322s.976-.377 1.3-.837c1.128-1.606 1.885-2.363 2.363-2.363.611 0 1.625-.999 1.625-1.6 0-.497.975-1.6 1.415-1.6.391 0 2.17-1.738 2.178-2.129.01-.489 1.083-1.471 1.607-1.471.626 0 1.6-1.024 1.6-1.683 0-.297.377-.805.837-1.129 1.715-1.205 2.363-1.9 2.363-2.535 0-.359.145-.653.322-.653.609 0 3.278-2.709 3.278-3.327 0-.34.321-.721.713-.846s1.02-.744 1.394-1.377c.616-1.043 1.524-2.15 3.884-4.736.445-.487.809-1.08.809-1.318s.405-.852.9-1.364c1.521-1.574 2.3-2.621 2.3-3.09 0-.246.317-.739.704-1.095.891-.818 2.543-3.113 3.272-4.547.307-.605.709-1.1.892-1.1s.332-.317.332-.704.36-.928.8-1.203.8-.83.8-1.234.36-1.061.8-1.459.8-.921.8-1.162.451-.961 1-1.6 1-1.494 1-1.9.18-.738.4-.738.4-.236.4-.525.315-.882.7-1.32c1.069-1.215 1.7-2.459 1.7-3.35 0-.443.18-.805.4-.805s.4-.32.4-.712.36-.971.8-1.288.8-.897.8-1.288.18-.712.4-.712.4-.63.4-1.4c0-.978.181-1.4.6-1.4.333 0 .6-.356.6-.8s.144-.8.32-.8c.444 0 2.08-3.451 2.08-4.387 0-.421.18-.877.4-1.013s.4-.604.4-1.04.36-1.18.8-1.652.8-1.174.8-1.56.18-.812.4-.948.4-.923.4-1.748c0-.939.294-1.817.785-2.344.998-1.071 2.476-4.996 2.713-7.208.1-.935.344-1.7.542-1.7s.36-.349.36-.776.18-.888.4-1.024.4-.777.4-1.424.18-1.176.4-1.176.4-.54.4-1.2.18-1.2.4-1.2.4-.99.4-2.2.18-2.2.4-2.2.4-.72.4-1.6.18-1.6.4-1.6.4-.525.4-1.167.177-1.226.394-1.3c.52-.176 1.216-3.443 1.477-6.933.116-1.54.372-2.971.57-3.18s.359-1.233.359-2.276.18-2.008.4-2.144.4-1.191.4-2.344.225-2.321.5-2.596c.729-.729.729-50.591 0-51.32-.275-.275-.5-1.443-.5-2.596s-.18-2.208-.4-2.344-.4-1.126-.4-2.2-.18-2.064-.4-2.2-.4-1.224-.4-2.418c0-2.448-.603-5.429-1.438-7.114a6.14 6.14 0 0 1-.562-2.277c0-.629-.18-1.255-.4-1.391s-.4-.777-.4-1.424-.18-1.176-.4-1.176-.4-.979-.4-2.176-.18-2.288-.4-2.424-.4-.687-.4-1.224-.18-.976-.4-.976-.4-.529-.4-1.176-.18-1.288-.4-1.424-.4-.597-.4-1.024-.18-.776-.4-.776-.403-.585-.406-1.3c-.006-1.297-.8-4.039-1.32-4.559-.151-.151-.274-.591-.274-.979a2.15 2.15 0 0 0-.5-1.249c-.958-1.042-1.5-2.31-1.5-3.508 0-.663-.18-1.205-.4-1.205s-.404-.405-.409-.9-.361-1.35-.791-1.9-.786-1.304-.791-1.676-.189-.788-.409-.924-.4-.58-.4-.986c0-.798-1.609-4.129-2.1-4.347-.165-.074-.3-.459-.3-.858s-.27-.827-.6-.954-.6-.591-.6-1.032-.458-1.571-1.018-2.512-1.12-2.026-1.246-2.411-.388-.7-.583-.7-.353-.35-.353-.777c0-.85-1.365-3.37-2.49-4.598-.39-.427-.71-1.059-.71-1.405s-.45-1.113-1-1.707-1-1.273-1-1.512-.36-.821-.8-1.293-.8-1.157-.8-1.521-.36-.989-.8-1.387-.8-.966-.8-1.262-.15-.538-.332-.538-.588-.495-.9-1.1-.748-1.319-.968-1.586l-.9-1.083c-.275-.329-.5-.745-.5-.926s-.36-.588-.8-.905-.8-.825-.8-1.128-.495-1.032-1.1-1.619-1.37-1.54-1.7-2.117c-.886-1.549-2.048-3.084-3.4-4.492-.66-.687-1.454-1.741-1.764-2.34s-.895-1.196-1.3-1.324-.736-.474-.736-.767c0-.594-2.676-3.413-3.24-3.413-.198 0-.36-.283-.36-.629 0-.808-.963-1.771-1.771-1.771-.346 0-.629-.27-.629-.6s-.18-.6-.4-.6-.4-.251-.4-.558-1.02-1.523-2.266-2.7-3.098-2.997-4.116-4.042-1.992-1.9-2.163-1.9c-.418 0-1.455-1.057-1.455-1.483 0-.455-1.499-1.717-2.041-1.717-.238 0-1.157-.81-2.043-1.8s-1.86-1.8-2.164-1.8-.552-.23-.552-.511c0-.533-1.379-1.889-1.921-1.889-.171 0-1.107-.72-2.079-1.6s-1.909-1.6-2.081-1.6c-.313 0-1.142-.663-3.869-3.091-.798-.71-1.693-1.295-1.99-1.3s-1.016-.516-1.6-1.136-1.645-1.384-2.36-1.698-1.3-.706-1.3-.873-.261-.302-.58-.302a1.2 1.2 0 0 1-.9-.5c-.43-.673-2.78-2.3-3.321-2.3-.238 0-.819-.36-1.291-.8a8.54 8.54 0 0 0-1.983-1.297c-.619-.274-1.125-.634-1.125-.801s-.272-.302-.605-.302c-.682 0-2.009-.699-3.049-1.606-.382-.333-2.101-1.313-3.82-2.178s-3.216-1.673-3.326-1.795c-.482-.533-2.056-1.221-2.795-1.221-.443 0-.805-.18-.805-.4s-.36-.4-.8-.4-.8-.18-.8-.4-.36-.4-.8-.4-.8-.18-.8-.4-.283-.4-.629-.4-.898-.27-1.228-.6-.922-.6-1.316-.6-2.116-.72-3.827-1.6c-1.813-.933-3.671-1.6-4.455-1.6-.74 0-1.345-.18-1.345-.4s-.36-.4-.8-.4-.8-.18-.8-.4-.272-.4-.605-.4-.963-.18-1.4-.4l-1.59-.8c-.437-.22-1.322-.4-1.967-.4s-1.773-.3-2.506-.668C260.703 9.715 260.416 9.6 259.8 9.6c-.336 0-.968-.18-1.405-.4l-1.59-.8c-.437-.22-1.686-.4-2.776-.4s-2.093-.18-2.229-.4-.777-.4-1.424-.4-1.176-.18-1.176-.4-.529-.4-1.176-.4-1.288-.18-1.424-.4-.957-.4-1.824-.4-1.576-.18-1.576-.4c0-.233-1.333-.4-3.2-.4s-3.2-.167-3.2-.4c0-.22-.732-.4-1.626-.4s-2.02-.216-2.5-.48c-.853-.468-1.888-.661-8.474-1.575-3.674-.51-43.089-.923-43.555-.456m-58.751 71.635c7.555 1.536 14.713 7.114 18.573 14.476 2.204 4.204 3.133 7.974 3.133 12.716 0 5.469-.445 7.278-3.193 12.996-2.833 5.894-11.615 13.488-15.598 13.488-.419 0-.861.16-.982.356-.536.868-11.456 1.615-13.383.916-.574-.209-1.854-.604-2.844-.878-11.501-3.186-19.933-14.446-19.986-26.688-.013-3.163.488-6.332 1.233-7.801.194-.382.353-.969.353-1.304 0-.932 1.608-4.162 3.221-6.473 6.863-9.829 17.744-14.187 29.473-11.804m21.073 77.919c.971.372.971 157.542 0 157.914-1.305.501-54.378.272-54.887-.237-.698-.698-.698-156.742 0-157.44.509-.509 53.582-.738 54.887-.237m75.353.237c.346.346.489 3.277.512 10.5.017 5.511.134 9.75.26 9.42s.348-.69.494-.8.82-1.01 1.496-2c5.347-7.833 15.296-13.276 29.918-16.367 9.999-2.114 25.05-1.466 37.1 1.596 3.128.795 3.989 1.092 6.9 2.38l3.017 1.329c15.687 6.874 24.074 24.191 25.973 53.624.734 11.391.544 96.847-.219 97.609-.855.855-46.592.968-47.298.117-.292-.352-.478-14.399-.595-44.9L275.089 216c-.778-4.27-1.874-8.483-2.336-8.98-.194-.209-.353-.698-.353-1.086 0-.882-1.669-3.907-3.607-6.538-6.214-8.435-19.194-11.01-31.852-6.32-6.274 2.325-10.979 7.784-13.364 15.504-2.682 8.682-2.498 4.916-2.669 54.607l-.581 45.5c-.599.723-45.125.755-45.847.033-.698-.698-.698-156.742 0-157.44.692-.692 43.148-.692 43.84 0" fill="#040404"/><path d="M112.2 73.174c-.941.153.458.263 3.4.267 3.479.005 4.452-.083 3.2-.288-2.123-.347-4.385-.34-6.6.021m-4 .826l-.8.344.8.022a2.89 2.89 0 0 0 1.4-.366c.795-.514-.204-.514-1.4 0m13.6 0c.44.189 1.07.344 1.4.344.378 0 .304-.127-.2-.344-.44-.189-1.07-.344-1.4-.344-.378 0-.304.127.2.344m-16.947 1.053c-.74.323-1.261.672-1.158.775s.98-.162 1.947-.591 1.488-.779 1.158-.776-1.206.269-1.947.592M124.4 74.8c.33.213.87.388 1.2.388.533 0 .533-.043 0-.388-.33-.213-.87-.388-1.2-.388-.533 0-.533.043 0 .388m-24.8 3.369c-3.724 2.661-7.351 7.005-8.711 10.431-.545 1.373-.263.988 1.82-2.488 1.906-3.18 4.767-6.143 8.073-8.361 1.435-.963 2.431-1.745 2.214-1.738s-1.746.977-3.396 2.156m30.818-.418c2.545 1.707 5.414 4.428 7.223 6.849 1.415 1.894 1.736 2.114.916.627-1.118-2.028-5.231-6.105-7.838-7.77-3.212-2.052-3.45-1.819-.301.294m9.913 11.456c.585 1.324 1.121 2.238 1.189 2.032.125-.375-1.791-4.439-2.093-4.439-.088 0 .319 1.083.904 2.407M89 93.2c-.152.691-.186 1.347-.076 1.457s.324-.366.476-1.057.186-1.347.076-1.457-.324.366-.476 1.057m52.656-.8c0 .33.155.96.344 1.4.217.504.344.578.344.2 0-.33-.155-.96-.344-1.4-.217-.504-.344-.578-.344-.2m.837 3.6c0 .77.082 1.085.183.7s.1-1.015 0-1.4-.183-.07-.183.7M88.21 98.5c-.143 1.595-.096 3.89.103 5.1.315 1.917.365 1.543.385-2.9.026-5.781-.113-6.407-.488-2.2m54.724 1.9c0 1.65.071 2.325.157 1.5s.087-2.175 0-3-.157-.15-.157 1.5m-.474 4.262c-.033.694-.487 2.494-1.01 4l-1.228 3.538c-.186.536-.073.471.342-.2.957-1.544 2.304-6.323 2.12-7.524-.153-1.001-.168-.989-.224.186M88.834 106.8c.012.33.177.96.366 1.4l.344.8.022-.8a2.89 2.89 0 0 0-.366-1.4c-.345-.533-.385-.533-.366 0m1.567 4.52c-.002.553 1.249 2.764 1.45 2.562.106-.105-.177-.797-.628-1.537s-.821-1.201-.822-1.025m47.826 4.118c-.822 1.238-1.301 2.132-1.066 1.986.612-.378 2.951-3.845 2.738-4.058-.098-.098-.85.835-1.672 2.072m-45.625.056c1.516 3.202 8.334 8.824 12.698 10.471 1.95.736 1.176.194-1.883-1.318-4.055-2.004-8.259-5.736-10.923-9.695-.278-.414-.23-.17.108.542m41.435 4.904c-1.503 1.386-3.943 3.065-5.896 4.055-1.832.929-3.258 1.764-3.167 1.854.481.482 6.948-3.495 9.331-5.737 1.482-1.395 2.605-2.536 2.495-2.536s-1.353 1.063-2.763 2.364M107.6 126.8c1.368.438 2.419.438 1.4 0-.44-.189-1.16-.338-1.6-.332-.643.009-.604.075.2.332m14.8.018c-.438.297-.276.334.6.138 1.471-.329 1.79-.558.767-.55a2.91 2.91 0 0 0-1.367.412m-10.8.847c.99.151 2.88.276 4.2.276s3.21-.125 4.2-.276c1.103-.17-.522-.277-4.2-.277s-5.303.107-4.2.277m-23.414 24.432c-.105.277-.145 35.513-.089 78.303l.103 77.8H143V151.8l-27.311-.103c-21.638-.081-27.352.002-27.503.4m86.4 0c-.105.276-.145 35.513-.089 78.303l.103 77.8h45.6l.005-85.6-.209 85.4H174.8V151.993l43 .207.2 10.2c.225 11.468.271 11.604 2.703 7.952 1.878-2.819 4.519-5.691 7.102-7.72 2.384-1.874 3.04-2.48 2.195-2.029-2.64 1.411-7.081 5.821-9.604 9.538-2.022 2.977-1.972 3.18-2.094-8.541l-.102-9.8-21.711-.103c-17.157-.082-21.752.002-21.903.4m81.814-.309c-.33.078-2.22.362-4.2.63s-3.96.649-4.4.846c-.577.258-.411.294.6.13 11.73-1.908 25.501-1.891 35.2.042.77.153 1.291.159 1.158.013-.995-1.095-24.844-2.491-28.358-1.661m-113.699 78.315l.101 77.903L88.6 307.8l-.103-77.4.089-77.903c.151-.398 5.785-.481 27.103-.4l26.911.103.101 77.903m98.677-75.127c-1.992.713-3.972 1.519-4.4 1.791-.762.483-.761.488.022.216l5.2-1.805c2.42-.841 4.04-1.521 3.6-1.513s-2.43.598-4.422 1.311m48.822.202l5.2 1.8c.49.167.407.043-.215-.321-1.128-.66-8.236-3.071-8.938-3.032-.246.014 1.533.712 3.953 1.553m6.2 2.137c0 .111.945.693 2.1 1.294 4.55 2.368 9.703 6.557 12.243 9.952.477.639.981 1.048 1.12.91.545-.546-7.713-8.085-10.906-9.957-3.332-1.952-4.557-2.544-4.557-2.199m-63.674 1.499c-.811.428-1.58.95-1.71 1.159s.579-.074 1.575-.63 1.809-1.086 1.809-1.177c0-.232-.028-.222-1.674.648m80.454 13.092c.709 1.152 1.375 2.094 1.48 2.094.313 0-1.585-3.206-2.2-3.717-.313-.259.012.472.72 1.623m3.268 6.095c.488 1.209 1.049 2.379 1.248 2.599s-.025-.59-.496-1.8-1.033-2.38-1.248-2.599.009.591.496 1.8m3.206 8.399c-.021.829 1.871 8.744 1.912 8 .038-.69-.98-5.621-1.528-7.4-.203-.66-.376-.93-.384-.6m-75.854 3.957c-.88.134 1.55.243 5.4.243 3.938 0 6.213-.118 5.2-.27-2.17-.326-8.382-.31-10.6.027m-5.8 1.355c-2.432.833-5.083 2.288-4.169 2.288.225 0 .594-.185.819-.41s1.927-.936 3.78-1.578 3.1-1.173 2.77-1.18-1.77.39-3.2.88m20.495-.153c1.262.416 2.95 1.142 3.75 1.615s1.55.764 1.665.649c.324-.323-4.736-2.578-6.31-2.812-.939-.14-.645.041.895.548M232.2 194.62c-3.159 2.348-7 6.767-7 8.053 0 .174.628-.617 1.396-1.757 1.303-1.934 3.447-4.181 5.804-6.083 1.153-.93.994-1.1-.2-.213m34.669 1.849c1.468 1.459 3.222 3.615 3.897 4.791s1.228 1.95 1.23 1.718c.011-1.238-4.553-6.842-6.996-8.588-.44-.315.401.621 1.869 2.079m54.801-.669c-.013.44.125 1.52.307 2.4.278 1.345.331 1.409.33.4-.002-1.401-.599-4.03-.637-2.8m.987 7.2c.115 1.1.294 25.175.398 53.5l.189 51.5H276.8l-.043-42.5-.3-44.9c-.142-1.32-.208 17.67-.149 42.2l.289 45.103c.143.398 5.05.482 23.492.4l23.311-.103-.02-51.2-.475-53.6c-.416-2.193-.438-2.228-.248-.4m-49.65 3c.681 2.219 1.338 3.766 1.359 3.2.028-.758-.912-3.484-1.342-3.893-.178-.169-.185.143-.017.693m-50.565 3.1c-.435 1.485-.893 3.42-1.017 4.3s.209.07.739-1.8l1.247-4.3c.155-.495.179-.9.053-.9s-.586 1.215-1.022 2.7m52.026 1.3c.02 1.039.65 2.746.664 1.8.006-.44-.143-1.16-.332-1.6-.211-.49-.339-.568-.332-.2m1.004 5.4c.127 1.1.297 2.075.379 2.167.281.315.069-2.168-.271-3.167-.229-.674-.264-.349-.108 1m-54.571.8c.004.88.086 1.193.182.695s.092-1.217-.008-1.6-.179.025-.174.905m-.392 3.4c0 .99.078 1.395.173.9s.096-1.305 0-1.8-.173-.09-.173.9" fill="#848484"/><path d="M111.276 72.74c-.509.143 1.319.26 4.061.26s4.778-.132 4.524-.294c-.559-.356-7.292-.33-8.585.034m-4.48 1.034c-4.316 1.591-9.13 4.763-11.763 7.749-2.529 2.869-2.118 2.691 1.077-.467 3.574-3.533 7.435-5.88 11.69-7.107 1.32-.381 1.95-.692 1.4-.692s-1.632.232-2.404.517m16.804.153c6.634 2.278 11.679 6.113 15.35 11.668.797 1.207 1.45 2.047 1.45 1.867 0-3.758-11.769-13.144-17.65-14.076-.888-.141-.596.045.85.541M91.316 86.5c-.626.819-2.166 4.354-2.036 4.672.066.162.696-.936 1.4-2.439 1.247-2.661 1.416-3.254.636-2.233m50.718 5.5c.012.33.177.96.366 1.4l.344.8.022-.8a2.89 2.89 0 0 0-.366-1.4c-.345-.533-.385-.533-.366 0m-53.367.667c-.147.146-.256.641-.242 1.1.024.766.057.756.409-.125.392-.979.31-1.453-.167-.975M143 100.639c0 3.194.117 5.393.26 4.885.347-1.232.356-9.141.012-10.009-.15-.377-.272 1.929-.272 5.124M87.852 96.1c-.313 1.17-.249 7.828.088 9.025.143.508.26-1.516.26-4.5 0-5.894.004-5.839-.348-4.525m.554 10.933a2.91 2.91 0 0 0 .412 1.367c.297.438.334.276.138-.6-.329-1.471-.558-1.79-.55-.767m53.856.714c-.165.631-.206 1.242-.091 1.357.322.323.716-.966.544-1.781-.112-.533-.231-.422-.453.424M90 111.858c0 1.845 6.079 9.111 9.472 11.321 1.06.691 1.388.847.728.347-2.663-2.018-7.288-7.078-8.7-9.517-.825-1.425-1.5-2.393-1.5-2.151m49.481 2.647c-.364.712-1.158 1.925-1.764 2.695-.939 1.194-.964 1.282-.168.6 1.013-.867 3.059-4.125 2.771-4.413-.097-.097-.475.406-.839 1.118m-6.806 7.699c-.839.728-2.493 1.831-3.676 2.451s-2.082 1.196-1.996 1.281 1.29-.486 2.676-1.27c2.538-1.435 4.991-3.335 4.686-3.628-.091-.087-.851.438-1.69 1.166m-31.075 2.392c0 .274 2.449 1.488 2.632 1.305.087-.087-.47-.457-1.237-.823s-1.395-.583-1.395-.482m8.8 3.395c.539.357 4.768.613 4.367.265-.092-.08-1.247-.261-2.567-.403-1.643-.177-2.211-.133-1.8.138m7.6.009l-1.8.28 2 .054c1.1.029 2.27-.121 2.6-.334.703-.454.123-.454-2.8 0m-29.92 23.28c-.698.698-.698 156.742 0 157.44.509.509 53.582.738 54.887.237.971-.372.971-157.542 0-157.914-1.305-.501-54.378-.272-54.887.237m86.4 0c-.698.698-.698 156.742 0 157.44.728.728 45.248.689 45.853-.039.435-.524.901-89.249.467-88.815-.11.11-.29 20.12-.4 44.467l-.2 44.267h-45.6V151.4l21-.111 21.9.108.9.218v9.969c0 5.483.135 10.052.3 10.155.492.304.135-19.815-.363-20.415-.608-.733-43.125-.776-43.857-.044m81.72-.008c-1.98.201-4.14.535-4.8.742-1.188.373-1.186.375.2.189 5.496-.736 11.983-1.064 17.8-.901 4.048.114 5.667.071 4-.106-3.83-.406-12.833-.366-17.2.076m-113.499.258c.399.254.48 16.258.4 78.694L143 308.6l-26.6.11c-14.63.061-27.005.013-27.5-.107l-.9-.218v-78.359l.5-78.561c.84-.339 53.665-.275 54.201.065m133.732.217c.092.081 1.337.25 2.767.376 1.63.143 2.227.103 1.6-.107-.98-.33-4.695-.558-4.367-.269M246.4 153.02c-.99.284-1.44.522-1 .53s1.7-.235 2.8-.541 1.55-.544 1-.53-1.81.257-2.8.541m37.6-.003c2.863.715 3.998.678 1.4-.045-1.1-.306-2.36-.545-2.8-.53s.19.273 1.4.575m-42.142 1.235c-1.068.328-1.853.686-1.744.795.206.207 4.286-1.024 4.286-1.293 0-.235-.43-.151-2.542.498M288 153.77c0 .24 4.138 1.425 4.325 1.238.085-.084-.797-.436-1.958-.781-2.334-.693-2.367-.699-2.367-.457m-54.6 4.148c-4.446 2.454-9.779 6.857-11.895 9.82-.447.625.696-.38 2.541-2.233 3.508-3.526 5.745-5.22 9.754-7.389 1.32-.714 2.22-1.299 2-1.3s-1.3.495-2.4 1.102m65-.126c0 .105.706.552 1.568.992s2.797 1.725 4.3 2.856 2.289 1.577 1.748.992c-1.443-1.558-7.616-5.482-7.616-4.84m8.809 5.861c-.005.139.812 1.129 1.817 2.2s2.738 3.297 3.854 4.947c2.218 3.279 3.106 4.36 2.303 2.8-1.415-2.744-7.94-10.885-7.974-9.947m-87.32 6.352c-.763.891-.905 1.376-.291.996.392-.242 1.348-1.801 1.105-1.801-.069 0-.435.362-.814.805m95.711 4.941c0 .458 2.774 5.963 2.786 5.529.015-.554-2.356-5.675-2.628-5.675-.087 0-.158.066-.158.146m4.434 11.454c.012.33.177.96.366 1.4l.344.8.022-.8a2.89 2.89 0 0 0-.366-1.4c-.345-.533-.385-.533-.366 0m.822 3c0 .44.155 1.16.344 1.6l.344.8v-.8c0-.44-.155-1.16-.344-1.6l-.344-.8v.8m-72.549 1.29c.719.089 1.799.087 2.4-.004s.013-.164-1.307-.162-1.812.077-1.093.166m-6.507.529c-.558.252-.315.288.8.119.88-.134 1.675-.31 1.767-.391.343-.303-1.799-.076-2.567.272m13.4-.019c1.368.438 2.419.438 1.4 0-.44-.189-1.16-.338-1.6-.332-.643.009-.604.075.2.332m-17.799 1.254c-2.086.846-2.979 1.426-1.601 1.04 2.067-.578 5.113-1.864 4.4-1.858-.44.004-1.699.372-2.799.818m23.115.516c3.836 1.675 6.826 4.174 9.098 7.605.952 1.438 1.804 2.54 1.894 2.45 1.54-1.539-10.248-11.451-13.582-11.42-.289.003.876.617 2.59 1.365m61.17.23c-.003.77.138 1.85.314 2.4.45 1.404.465-.063.023-2.2l-.331-1.6-.006 1.4m-88.926 1.651c-2.285 1.624-3.827 3.059-4.888 4.549-.47.66.169.173 1.42-1.083s3.002-2.765 3.891-3.353c1.452-.961 1.888-1.364 1.477-1.364-.077 0-.932.563-1.9 1.251m89.891 4.749c.771 8.364.825 8.759.872 6.4.024-1.21-.217-3.73-.534-5.6-.514-3.029-.551-3.117-.338-.8m-97.97 4.886c-.975 2.056-1.946 5.12-1.78 5.618.083.249.392-.438.686-1.526s.866-2.684 1.271-3.547.671-1.635.592-1.715-.426.447-.769 1.17m47.747 1.39c-.015.482.152.988.372 1.124.473.292.473-.099 0-1.2-.331-.771-.345-.769-.372.076m.8 1.804c-.045.452 1.14 4.821 1.37 5.051.311.311-.246-2.316-.833-3.931-.28-.77-.521-1.274-.537-1.12m50.704 50.344l-.445 50.304c-.436.362-6.21.453-23.732.375L276.6 308.6l-.2-44.467-.4-44.667c-.429-.428.044 88.705.473 89.222.706.851 46.443.738 47.298-.117.657-.657.912-87.226.284-96.571-.14-2.09-.196 18.621-.123 46.024M222.2 212c-.152.691-.193 1.341-.091 1.442s.3-.389.441-1.092.181-1.352.091-1.442-.289.401-.441 1.092m52.701 2.6c.004.88.086 1.193.182.695s.092-1.217-.008-1.6-.179.025-.174.905m-53.501 1c-.154.91-.196 1.738-.093 1.84s.306-.563.453-1.48.188-1.745.093-1.84-.299.57-.453 1.48" fill="#4c4c4c"/><path d="M135.375 119.7L134.2 121l1.3-1.175c1.212-1.095 1.484-1.425 1.175-1.425-.069 0-.654.585-1.3 1.3M102.1 151.5h27c7.425-.061 1.35-.111-13.5-.111l-13.5.111m72.562 0c-.169.272 16.011.268 35.538-.01 4.18-.06-2.064-.149-13.876-.199s-21.56.044-21.662.209m87.82-.004c1.476.077 3.996.077 5.6.001s.398-.139-2.682-.139-4.393.061-2.918.138m60.819 57.904c.004.88.086 1.193.182.695s.092-1.217-.008-1.6-.179.025-.174.905m.298 53.4l-.199 45.4h-23.462l-23.276.3c.369.597 46.392.358 46.891-.243.329-.397.423-12.662.348-45.7l-.103-45.157-.199 45.4m-47.479-38c0 1.21.075 1.705.167 1.1a8.9 8.9 0 0 0 0-2.2c-.092-.605-.167-.11-.167 1.1M115.8 308.4l-27.2.208 27.076.096c17.724.063 27.162-.042 27.324-.304.136-.22.192-.357.124-.304s-12.364.189-27.324.304m58.862.1c.242.392 45.234.392 45.476 0 .102-.165-10.13-.3-22.738-.3l-22.738.3" fill="#747474"/></svg>