<svg xmlns="http://www.w3.org/2000/svg" width="400" height="400" viewBox="0 0 400 NaN"  fill-rule="evenodd" xmlns:v="https://vecta.io/nano"><path d="M115.8 117.243c-57.859 6.912-94.866 55.364-81.422 106.605 8.575 32.687 38.563 57.214 75.742 61.951 16.54 2.107 43.313-.664 58.085-6.011 7.484-2.709 7.982-3.304 11.611-13.859 5.724-16.651 5.454-23.453-.847-21.296-1.835.628-2.325 1.176-4.847 5.416-9.292 15.62-21.78 24.999-37.027 27.809-28.578 5.267-55.756-10.283-70.502-40.337-26.82-54.66 5.737-115.155 60.807-112.989 27.058 1.063 38.43 9.182 45.408 32.417 2.162 7.2 4.762 9.044 8.417 5.969l1.286-1.082-.28-6.368a236.28 236.28 0 0 0-.854-11.818l-1.013-9.85c-.869-8.707-1.455-9.195-15.09-12.572-15.698-3.887-36.359-5.552-49.474-3.985m84.406 2.474c-4.679 1.483-2.041 5.009 5.594 7.477 7.558 2.443 12.124 6.413 15.748 13.693 2.002 4.022 46.084 121.722 50.896 135.894 2.945 8.674 3.082 8.901 5.28 8.741 2.067-.15 3.124-2.037 6.109-10.907 2.924-8.689 3.779-10.812 28.349-70.415 22.609-54.846 24.949-60.249 27.525-63.567 6.303-8.12 10.981-11.367 19.693-13.669 6.67-1.762 9.007-3.286 8.449-5.51-.438-1.744-2.103-2.058-10.649-2.009-56.329.328-54.656.292-55.87 1.195-3.266 2.429-.047 5.456 7.225 6.795 11.406 2.1 16.208 9.917 13.124 21.365-1.372 5.095-36.209 96.081-36.968 96.553-.497.309-.817.301-1.147-.029-.525-.525-36.187-94.444-37.943-99.924-3.775-11.784-.838-15.603 13.978-18.173 7.019-1.218 9.809-3.091 8.774-5.889-.633-1.712-2.471-1.92-15.173-1.722-16.238.253-23.716.232-38.6-.11-9.884-.228-13.163-.18-14.394.211" fill="#fafafa"/><path d="M186.4 1.041l-6 .586C72.603 11.696-8.078 108.658 1.358 216.8c10.18 116.675 116.675 199.115 232.219 179.766 112.846-18.898 186.544-130.03 160.58-242.143C375.11 72.178 307.182 12.141 221.407 1.74c-4.904-.595-31.237-1.12-35.007-.699m-35.662 117.135c7.356 1.206 21.535 4.603 24.459 5.861 3.595 1.546 4.522 3.297 5.167 9.763l1.013 9.85a236.28 236.28 0 0 1 .854 11.818l.28 6.368-1.286 1.082c-3.655 3.075-6.255 1.231-8.417-5.969-5.385-17.928-11.351-24.748-25.608-29.269C93.012 110.494 45.656 159 59.437 217.576c9.675 41.124 42.663 66.731 77.658 60.282 15.247-2.81 27.735-12.189 37.027-27.809 2.522-4.24 3.012-4.788 4.847-5.416 6.301-2.157 6.571 4.645.847 21.296-3.629 10.555-4.127 11.15-11.611 13.859-14.772 5.347-41.545 8.118-58.085 6.011-37.179-4.737-67.167-29.264-75.742-61.951-12.655-48.235 19.109-94.311 72.422-105.054 11.856-2.389 31.45-2.665 43.938-.618M234.4 119.8l18.8-.184c12.702-.198 14.54.01 15.173 1.722 1.035 2.798-1.755 4.671-8.774 5.889-14.816 2.57-17.753 6.389-13.978 18.173 1.756 5.48 37.418 99.399 37.943 99.924.33.33.65.338 1.147.029.759-.472 35.596-91.458 36.968-96.553 3.084-11.448-1.718-19.265-13.124-21.365-7.272-1.339-10.491-4.366-7.225-6.795 1.214-.903-.459-.867 55.87-1.195 8.546-.049 10.211.265 10.649 2.009.558 2.224-1.779 3.748-8.449 5.51-8.712 2.302-13.39 5.549-19.693 13.669-2.576 3.318-4.916 8.721-27.525 63.567l-28.349 70.415c-2.985 8.87-4.042 10.757-6.109 10.907-2.198.16-2.335-.067-5.28-8.741-4.812-14.172-48.894-131.872-50.896-135.894-3.624-7.28-8.19-11.25-15.748-13.693-5.974-1.931-8.317-3.763-7.561-5.914.683-1.941 2.156-2.101 16.361-1.774l19.8.294" fill="#040404"/></svg>